# xmcd
#
# Track frame offsets: 
#        182
#        18997
#        37885
#        53295
#        70632
#        87632
#        102065
#        119592
#        132567
#        155387
#
# Disc length: 2283 seconds
#
# Revision: 1
# Processed by: cddbd v1.5.2PL0 Copyright (c) Steve Scherf et al.
# Submitted via: ExactAudioCopy v0.99pb4
#
DISCID=7808e90a
DTITLE=Freddie King - Burglar
DYEAR=1974
DGENRE=Blues
TTITLE0=Pack It Up
TTITLE1=My Credit Didn't Go Through
TTITLE2=I Got The Same Old Blues
TTITLE3=Only Getting Second Best
TTITLE4=Texas Flyer
TTITLE5=Pulp Wood
TTITLE6=She's A Burglar
TTITLE7=Sugar Sweet
TTITLE8=I Had A Dream
TTITLE9=Let The Good Times Roll
EXTD=
EXTT0=
EXTT1=
EXTT2=
EXTT3=
EXTT4=
EXTT5=
EXTT6=
EXTT7=
EXTT8=
EXTT9=
PLAYORDER=
